<svg xmlns="http://www.w3.org/2000/svg" xmlns:xlink="http://www.w3.org/1999/xlink" version="1.1" width="256" height="256" viewBox="0 0 256 256" xml:space="preserve">
<desc>Created with Fabric.js 1.7.22</desc>
<defs>
</defs>
<g transform="translate(128 128) scale(0.72 0.72)" style="">
	<g style="stroke: none; stroke-width: 0; stroke-dasharray: none; stroke-linecap: butt; stroke-linejoin: miter; stroke-miterlimit: 10; fill: none; fill-rule: nonzero; opacity: 1;" transform="translate(-175.05 -175.05000000000004) scale(3.89 3.89)" >
	<path d="M 43.074 62.1 c -0.037 0 -0.075 -0.001 -0.112 -0.002 c -1.099 -0.03 -2.138 -0.513 -2.871 -1.333 L 26.75 45.834 c -1.472 -1.647 -1.33 -4.176 0.318 -5.648 c 1.646 -1.472 4.175 -1.329 5.648 0.318 l 10.522 11.775 l 32.972 -32.972 c 1.561 -1.562 4.094 -1.562 5.656 0 c 1.563 1.562 1.563 4.095 0 5.657 L 45.902 60.928 C 45.151 61.679 44.133 62.1 43.074 62.1 z" style="stroke: none; stroke-width: 1; stroke-dasharray: none; stroke-linecap: butt; stroke-linejoin: miter; stroke-miterlimit: 10; fill: rgb(0,0,0); fill-rule: nonzero; opacity: 1;" transform=" matrix(1 0 0 1 0 0) " stroke-linecap="round" />
	<path d="M 45 90 C 20.187 90 0 69.813 0 45 C 0 20.187 20.187 0 45 0 c 10.151 0 19.734 3.3 27.712 9.543 c 1.74 1.361 2.047 3.875 0.686 5.615 c -1.36 1.739 -3.876 2.047 -5.615 0.685 C 61.226 10.712 53.348 8 45 8 C 24.598 8 8 24.598 8 45 c 0 20.402 16.598 37 37 37 c 20.402 0 37 -16.598 37 -37 c 0 -3.13 -0.391 -6.237 -1.16 -9.235 c -0.55 -2.14 0.739 -4.32 2.879 -4.869 c 2.143 -0.552 4.319 0.739 4.869 2.879 C 89.525 37.423 90 41.199 90 45 C 90 69.813 69.813 90 45 90 z" style="stroke: none; stroke-width: 1; stroke-dasharray: none; stroke-linecap: butt; stroke-linejoin: miter; stroke-miterlimit: 10; fill: rgb(0,0,0); fill-rule: nonzero; opacity: 1;" transform=" matrix(1 0 0 1 0 0) " stroke-linecap="round" />
</g>
</g>
</svg>