<svg xmlns="http://www.w3.org/2000/svg" xmlns:xlink="http://www.w3.org/1999/xlink" version="1.1" width="256" height="256" viewBox="0 0 256 256" xml:space="preserve">
<desc>Created with Fabric.js 1.7.22</desc>
<defs>
</defs>
<g transform="translate(128 128) scale(0.72 0.72)" style="">
	<g style="stroke: none; stroke-width: 0; stroke-dasharray: none; stroke-linecap: butt; stroke-linejoin: miter; stroke-miterlimit: 10; fill: none; fill-rule: nonzero; opacity: 1;" transform="translate(-175.05 -175.05000000000004) scale(3.89 3.89)" >
	<path d="M 90 20.91 c 0 -2.386 -0.93 -4.63 -2.617 -6.317 c -1.687 -1.687 -3.93 -2.616 -6.316 -2.616 s -4.63 0.929 -6.316 2.616 l -4.506 4.506 C 62.645 10.177 51.71 5.103 39.897 5.103 C 17.897 5.103 0 23 0 45 c 0 21.999 17.897 39.896 39.897 39.896 S 79.794 66.999 79.794 45 c 0 -3.081 -0.373 -6.139 -1.068 -9.116 l 8.657 -8.657 C 89.07 25.54 90 23.296 90 20.91 z M 75.794 45 c 0 19.793 -16.104 35.896 -35.897 35.896 S 4 64.793 4 45 C 4 25.207 20.104 9.103 39.897 9.103 c 10.734 0 20.657 4.661 27.503 12.839 L 40.531 48.811 l -15.55 -15.549 c -3.483 -3.481 -9.15 -3.481 -12.634 0 c -1.688 1.688 -2.617 3.931 -2.617 6.317 c 0 2.387 0.93 4.63 2.617 6.317 l 21.866 21.865 c 1.688 1.688 3.931 2.617 6.317 2.617 s 4.629 -0.93 6.317 -2.617 l 28.475 -28.474 C 75.624 41.171 75.794 43.079 75.794 45 z M 84.555 24.398 L 44.02 64.933 c -0.932 0.932 -2.171 1.445 -3.489 1.445 c -1.318 0 -2.557 -0.514 -3.489 -1.445 L 15.175 43.068 c -1.924 -1.924 -1.924 -5.054 0 -6.978 c 0.962 -0.961 2.225 -1.442 3.489 -1.442 s 2.527 0.48 3.489 1.441 l 18.378 18.377 l 37.047 -37.046 c 0.932 -0.932 2.17 -1.444 3.488 -1.444 s 2.557 0.513 3.488 1.445 C 85.486 18.353 86 19.592 86 20.91 S 85.486 23.466 84.555 24.398 z" style="stroke: none; stroke-width: 1; stroke-dasharray: none; stroke-linecap: butt; stroke-linejoin: miter; stroke-miterlimit: 10; fill: rgb(0,0,0); fill-rule: nonzero; opacity: 1;" transform=" matrix(1 0 0 1 0 0) " stroke-linecap="round" />
</g>
</g>
</svg>