<?xml version="1.0" encoding="UTF-8"?>
<svg xmlns="http://www.w3.org/2000/svg" xmlns:xlink="http://www.w3.org/1999/xlink" width="30px" height="30px" viewBox="0 0 30 30" version="1.1">
<g id="surface1">
<path style=" stroke:none;fill-rule:nonzero;fill:rgb(100%,100%,100%);fill-opacity:0.4;" d="M 29.96875 14.984375 C 29.96875 23.261719 23.261719 29.972656 14.984375 29.972656 C 6.710938 29.972656 0 23.261719 0 14.984375 C 0 6.710938 6.710938 0 14.984375 0 C 23.261719 0 29.96875 6.710938 29.96875 14.984375 Z M 29.96875 14.984375 "/>
<path style=" stroke:none;fill-rule:nonzero;fill:rgb(0%,0%,0%);fill-opacity:0.74902;" d="M 4.390625 4.390625 C 7.316406 1.464844 11.148438 0 14.984375 0 C 18.820312 0 22.65625 1.464844 25.582031 4.390625 C 28.507812 7.316406 29.96875 11.148438 29.96875 14.984375 C 29.96875 18.820312 28.507812 22.65625 25.582031 25.582031 C 22.65625 28.507812 18.820312 29.96875 14.984375 29.96875 C 11.148438 29.96875 7.316406 28.507812 4.390625 25.582031 C 1.464844 22.65625 0 18.820312 0 14.984375 C 0 11.148438 1.464844 7.316406 4.390625 4.390625 Z M 22.367188 14.285156 C 22.816406 14.285156 23.179688 14.648438 23.179688 15.097656 C 23.179688 15.546875 22.816406 15.910156 22.367188 15.910156 C 17.371094 15.910156 12.378906 15.910156 7.382812 15.910156 C 6.933594 15.910156 6.570312 15.546875 6.570312 15.097656 C 6.570312 14.648438 6.933594 14.285156 7.382812 14.285156 C 12.378906 14.285156 17.371094 14.285156 22.367188 14.285156 Z M 14.984375 1.625 C 11.566406 1.625 8.148438 2.929688 5.539062 5.539062 C 2.929688 8.148438 1.625 11.566406 1.625 14.984375 C 1.625 18.402344 2.929688 21.824219 5.539062 24.433594 C 8.148438 27.039062 11.566406 28.34375 14.984375 28.34375 C 18.402344 28.34375 21.824219 27.039062 24.433594 24.433594 C 27.039062 21.824219 28.34375 18.402344 28.34375 14.984375 C 28.34375 11.566406 27.039062 8.148438 24.433594 5.539062 C 21.824219 2.929688 18.402344 1.625 14.984375 1.625 Z M 14.984375 1.625 "/>
</g>
</svg>
